<?xml version="1.0" standalone="no"?><!DOCTYPE svg PUBLIC "-//W3C//DTD SVG 1.1//EN" "http://www.w3.org/Graphics/SVG/1.1/DTD/svg11.dtd"><svg class="icon" height="512" viewBox="0 0 1024 1024" version="1.1" xmlns="http://www.w3.org/2000/svg"><path d="M832.377 499.881L701.305 364.074c-6.652-6.651-22.102-6.651-28.754 0l-21.219 27.455c-6.662 6.651-6.662 17.454 0 24.105l59.863 66.125H438.282c-9.406 0-17.026 7.635-17.026 17.042v27.953c0 9.417 7.62 17.051 17.026 17.051h272.781l-59.876 64.573c-6.65 6.652-6.65 17.442 0 24.104l21.229 27.455c6.652 6.652 22.104 6.652 28.768 0l103.763-108.485v-0.011l27.431-27.455c6.651-6.652 6.651-17.442-0.001-24.105M595.441 183.576H237.748c-28.233 0-51.113 22.904-51.113 51.148V789.29c0 28.243 22.88 51.134 51.113 51.134h357.693c28.22 0 51.109-22.891 51.109-51.134v-61.078c0-9.419-7.633-17.053-17.039-17.053h-27.614c-9.406 0-17.04 7.634-17.04 17.053v27.371c-0.183 13.957-11.545 25.222-25.55 25.222h-284.59c-14.115 0-25.563-11.458-25.563-25.574V271.294c0-14.116 11.447-25.574 25.563-25.574h284.591c14.005 0 25.367 11.263 25.55 25.222v28.183c0 9.419 7.634 17.054 17.04 17.054h27.614c9.406 0 17.039-7.635 17.039-17.054v-64.401c0-28.245-22.89-51.148-51.11-51.148m0 0" fill="" /></svg>