<svg height="512pt" viewBox="0 0 512 512" width="512pt" xmlns="http://www.w3.org/2000/svg" xmlns:xlink="http://www.w3.org/1999/xlink"><linearGradient id="a" gradientUnits="userSpaceOnUse" x1="0" x2="512" y1="256" y2="256"><stop offset="0" stop-color="#00f38d"/><stop offset="1" stop-color="#009eff"/></linearGradient><path d="m512 256c0 141.386719-114.613281 256-256 256s-256-114.613281-256-256 114.613281-256 256-256 256 114.613281 256 256zm0 0" fill="url(#a)"/><g fill="#fff"><path d="m256.160156 371.867188-59.683594-63.09375 21.796876-20.617188 37.828124 39.992188 37.597657-39.960938 21.851562 20.554688zm0 0"/><path d="m256 424.007812c-60.464844 0-109.65625-49.191406-109.65625-109.65625v-116.703124c0-60.464844 49.191406-109.65625 109.65625-109.65625s109.65625 49.191406 109.65625 109.65625v116.703124c0 60.464844-49.191406 109.65625-109.65625 109.65625zm0-306.015624c-43.925781 0-79.65625 35.734374-79.65625 79.65625v116.703124c0 43.921876 35.730469 79.65625 79.65625 79.65625 43.921875 0 79.65625-35.734374 79.65625-79.65625v-116.703124c0-43.921876-35.734375-79.65625-79.65625-79.65625zm0 0"/><path d="m268.96875 155.507812c0 7.160157-5.808594 12.964844-12.96875 12.964844s-12.96875-5.804687-12.96875-12.964844c0-7.160156 5.808594-12.96875 12.96875-12.96875s12.96875 5.808594 12.96875 12.96875zm0 0"/><path d="m268.96875 155.507812c0 7.160157-5.808594 12.964844-12.96875 12.964844s-12.96875-5.804687-12.96875-12.964844c0-7.160156 5.808594-12.96875 12.96875-12.96875s12.96875 5.808594 12.96875 12.96875zm0 0"/><path d="m268.96875 207.375c0 7.160156-5.808594 12.964844-12.96875 12.964844s-12.96875-5.804688-12.96875-12.964844 5.808594-12.96875 12.96875-12.96875 12.96875 5.808594 12.96875 12.96875zm0 0"/><path d="m268.96875 207.375c0 7.160156-5.808594 12.964844-12.96875 12.964844s-12.96875-5.804688-12.96875-12.964844 5.808594-12.96875 12.96875-12.96875 12.96875 5.808594 12.96875 12.96875zm0 0"/><path d="m268.96875 259.242188c0 7.160156-5.808594 12.964843-12.96875 12.964843s-12.96875-5.804687-12.96875-12.964843c0-7.164063 5.808594-12.96875 12.96875-12.96875s12.96875 5.804687 12.96875 12.96875zm0 0"/><path d="m268.96875 259.242188c0 7.160156-5.808594 12.964843-12.96875 12.964843s-12.96875-5.804687-12.96875-12.964843c0-7.164063 5.808594-12.96875 12.96875-12.96875s12.96875 5.804687 12.96875 12.96875zm0 0"/></g></svg>