<?xml version="1.0" encoding="iso-8859-1"?>
<!-- Generator: Adobe Illustrator 18.0.0, SVG Export Plug-In . SVG Version: 6.00 Build 0)  -->
<!DOCTYPE svg PUBLIC "-//W3C//DTD SVG 1.1//EN" "http://www.w3.org/Graphics/SVG/1.1/DTD/svg11.dtd">
<svg version="1.1" id="Capa_1" xmlns="http://www.w3.org/2000/svg" xmlns:xlink="http://www.w3.org/1999/xlink" x="0px" y="0px"
	 viewBox="0 0 206.582 206.582" style="enable-background:new 0 0 206.582 206.582;" xml:space="preserve">
<g>
	<path d="M107.291,68.479V4c0-2.209-1.791-4-4-4s-4,1.791-4,4v64.479c-36.254,2.08-65.114,32.224-65.114,68.99
		c0,38.109,31.004,69.114,69.114,69.114s69.114-31.004,69.114-69.114C172.405,100.702,143.545,70.559,107.291,68.479z
		 M103.291,193.582c-30.941,0-56.114-25.172-56.114-56.114s25.172-56.114,56.114-56.114s56.114,25.172,56.114,56.114
		S134.232,193.582,103.291,193.582z"/>
	<path d="M103.291,97.953c-21.789,0-39.515,17.727-39.515,39.516c0,21.789,17.727,39.515,39.515,39.515s39.515-17.727,39.515-39.515
		C142.806,115.679,125.08,97.953,103.291,97.953z M103.291,168.983c-17.377,0-31.515-14.138-31.515-31.515
		c0-17.378,14.138-31.516,31.515-31.516s31.515,14.138,31.515,31.516C134.806,154.846,120.668,168.983,103.291,168.983z"/>
	<circle cx="103.291" cy="137.468" r="13.415"/>
</g>
<g>
</g>
<g>
</g>
<g>
</g>
<g>
</g>
<g>
</g>
<g>
</g>
<g>
</g>
<g>
</g>
<g>
</g>
<g>
</g>
<g>
</g>
<g>
</g>
<g>
</g>
<g>
</g>
<g>
</g>
</svg>
