<?xml version="1.0" encoding="iso-8859-1"?>
<!-- Generator: Adobe Illustrator 18.0.0, SVG Export Plug-In . SVG Version: 6.00 Build 0)  -->
<!DOCTYPE svg PUBLIC "-//W3C//DTD SVG 1.1//EN" "http://www.w3.org/Graphics/SVG/1.1/DTD/svg11.dtd">
<svg version="1.1" id="Capa_1" xmlns="http://www.w3.org/2000/svg" xmlns:xlink="http://www.w3.org/1999/xlink" x="0px" y="0px"
	 viewBox="0 0 493.076 493.076" style="enable-background:new 0 0 493.076 493.076;" xml:space="preserve">
<g id="XMLID_172_">
	<path id="XMLID_176_" d="M128.969,107.044c29.558,0,53.533-23.961,53.533-53.522C182.502,23.964,158.527,0,128.969,0
		C99.408,0,75.435,23.964,75.435,53.521C75.435,83.083,99.408,107.044,128.969,107.044z"/>
	<path id="XMLID_173_" d="M465.033,276.524c-10.645,0-19.6,6.205-24.235,15.006C330.666,236.165,284.015,91.077,272.683,49.303
		l6.468-14.257c5.095-11.232,0.132-24.476-11.103-29.581c-11.279-5.094-24.487-0.13-29.583,11.103l-32.383,71.335l-45.744,44.635
		c-5.279-2.422-11.104-3.852-17.299-3.852h-28.142c-9.368,0-17.931,3.196-24.899,8.411l-78.425,44.85
		c-5.607,3.205-9.542,8.681-10.809,15.006c-1.266,6.338,0.261,12.905,4.21,18.021l50.458,65.497
		c4.396,5.716,11.006,8.705,17.692,8.705v55.91v125.651c0,12.336,10,22.339,22.337,22.339c12.335,0,22.338-10.003,22.338-22.339
		V345.086h22.339v125.651c0,12.336,10,22.339,22.337,22.339c12.336,0,22.34-10.003,22.34-22.339V345.086v-93.54v-80.474
		l55.473-54.123c1.984-1.941,3.6-4.233,4.746-6.751l13.469-29.658c20.31,63.175,72.917,186.549,181.399,235.096
		c4.362,9.576,13.919,16.318,25.131,16.318c15.305,0,27.715-12.414,27.715-27.716C492.747,288.935,480.337,276.524,465.033,276.524z
		 M73.123,198.208v32.024l-17.126-22.229L73.123,198.208z"/>
</g>
<g>
</g>
<g>
</g>
<g>
</g>
<g>
</g>
<g>
</g>
<g>
</g>
<g>
</g>
<g>
</g>
<g>
</g>
<g>
</g>
<g>
</g>
<g>
</g>
<g>
</g>
<g>
</g>
<g>
</g>
</svg>
